<svg width="48" height="48" viewBox="0 0 48 48" fill="none" xmlns="http://www.w3.org/2000/svg">
<path d="M10.5 3C10.1022 3 9.72064 3.15804 9.43934 3.43934C9.15804 3.72064 9 4.10218 9 4.5V43.5C9 43.8978 9.15804 44.2794 9.43934 44.5607C9.72064 44.842 10.1022 45 10.5 45H19.5V42H12V6H36V21H39V4.5C39 4.10218 38.842 3.72064 38.5607 3.43934C38.2794 3.15804 37.8978 3 37.5 3H10.5Z" fill="#274760"/>
<path d="M15 15H33V12H15V15ZM15 21H27V18H15V21Z" fill="#274760"/>
<path fill-rule="evenodd" clip-rule="evenodd" d="M31.5 24C28.7152 24 26.0445 25.1062 24.0754 27.0754C22.1062 29.0445 21 31.7152 21 34.5C21 37.2848 22.1062 39.9555 24.0754 41.9246C26.0445 43.8938 28.7152 45 31.5 45C34.2848 45 36.9555 43.8938 38.9246 41.9246C40.8938 39.9555 42 37.2848 42 34.5C42 31.7152 40.8938 29.0445 38.9246 27.0754C36.9555 25.1062 34.2848 24 31.5 24ZM30 28.5V34.5C29.9996 34.6971 30.0381 34.8924 30.1133 35.0746C30.1885 35.2568 30.2988 35.4224 30.438 35.562L34.938 40.062L37.062 37.938L33 33.879V28.5H30Z" fill="#274760"/>
</svg>
