<svg width="48" height="48" viewBox="0 0 48 48" fill="none" xmlns="http://www.w3.org/2000/svg">
<path fill-rule="evenodd" clip-rule="evenodd" d="M12 4C10.4087 4 8.88258 4.63214 7.75736 5.75736C6.63214 6.88258 6 8.4087 6 10V38C6 39.5913 6.63214 41.1174 7.75736 42.2426C8.88258 43.3679 10.4087 44 12 44H24C25.5913 44 27.1174 43.3679 28.2426 42.2426C29.3679 41.1174 30 39.5913 30 38V10C30 8.4087 29.3679 6.88258 28.2426 5.75736C27.1174 4.63214 25.5913 4 24 4H12ZM32.586 14.586C32.9611 14.2111 33.4697 14.0004 34 14.0004C34.5303 14.0004 35.0389 14.2111 35.414 14.586L43.414 22.586C43.7889 22.9611 43.9996 23.4697 43.9996 24C43.9996 24.5303 43.7889 25.0389 43.414 25.414L35.414 33.414C35.0368 33.7783 34.5316 33.9799 34.0072 33.9753C33.4828 33.9708 32.9812 33.7605 32.6104 33.3896C32.2395 33.0188 32.0292 32.5172 32.0247 31.9928C32.0201 31.4684 32.2217 30.9632 32.586 30.586L37.172 26H20C19.4696 26 18.9609 25.7893 18.5858 25.4142C18.2107 25.0391 18 24.5304 18 24C18 23.4696 18.2107 22.9609 18.5858 22.5858C18.9609 22.2107 19.4696 22 20 22H37.172L32.586 17.414C32.2111 17.0389 32.0004 16.5303 32.0004 16C32.0004 15.4697 32.2111 14.9611 32.586 14.586Z" fill="#274760"/>
</svg>
