<svg width="48" height="48" viewBox="0 0 48 48" fill="none" xmlns="http://www.w3.org/2000/svg">
<path d="M7.5 20.9999C7.10218 20.9999 6.72064 20.8419 6.43934 20.5606C6.15804 20.2793 6 19.8978 6 19.4999V7.50293C6 7.1051 6.15804 6.72357 6.43934 6.44227C6.72064 6.16097 7.10218 6.00293 7.5 6.00293H19.5C19.8978 6.00293 20.2794 6.16097 20.5607 6.44227C20.842 6.72357 21 7.1051 21 7.50293V19.4999C21 19.8978 20.842 20.2793 20.5607 20.5606C20.2794 20.8419 19.8978 20.9999 19.5 20.9999H7.5ZM28.5 20.9999C28.1022 20.9999 27.7206 20.8419 27.4393 20.5606C27.158 20.2793 27 19.8978 27 19.4999V7.50293C27 7.1051 27.158 6.72357 27.4393 6.44227C27.7206 6.16097 28.1022 6.00293 28.5 6.00293H40.497C40.8948 6.00293 41.2764 6.16097 41.5577 6.44227C41.839 6.72357 41.997 7.1051 41.997 7.50293V19.4999C41.997 19.8978 41.839 20.2793 41.5577 20.5606C41.2764 20.8419 40.8948 20.9999 40.497 20.9999H28.5ZM7.5 41.9999C7.10218 41.9999 6.72064 41.8419 6.43934 41.5606C6.15804 41.2793 6 40.8978 6 40.4999V28.4999C6 28.1021 6.15804 27.7206 6.43934 27.4393C6.72064 27.158 7.10218 26.9999 7.5 26.9999H19.5C19.8978 26.9999 20.2794 27.158 20.5607 27.4393C20.842 27.7206 21 28.1021 21 28.4999V40.4999C21 40.8978 20.842 41.2793 20.5607 41.5606C20.2794 41.8419 19.8978 41.9999 19.5 41.9999H7.5ZM28.5 41.9999C28.1022 41.9999 27.7206 41.8419 27.4393 41.5606C27.158 41.2793 27 40.8978 27 40.4999V28.4999C27 28.1021 27.158 27.7206 27.4393 27.4393C27.7206 27.158 28.1022 26.9999 28.5 26.9999H40.497C40.8948 26.9999 41.2764 27.158 41.5577 27.4393C41.839 27.7206 41.997 28.1021 41.997 28.4999V40.4999C41.997 40.8978 41.839 41.2793 41.5577 41.5606C41.2764 41.8419 40.8948 41.9999 40.497 41.9999H28.5Z" fill="#274760"/>
</svg>
