<svg width="48" height="48" viewBox="0 0 48 48" fill="none" xmlns="http://www.w3.org/2000/svg">
<path d="M23.9994 4C20.2863 4 16.7254 5.475 14.0999 8.1005C11.4744 10.726 9.99937 14.287 9.99937 18V25.056C9.99966 25.3663 9.92777 25.6723 9.78937 25.95L6.35537 32.816C6.18763 33.1514 6.10842 33.5242 6.12527 33.8989C6.14212 34.2735 6.25448 34.6377 6.45166 34.9567C6.64885 35.2757 6.92432 35.539 7.25191 35.7216C7.5795 35.9042 7.94833 36.0001 8.32337 36H39.6754C40.0504 36.0001 40.4193 35.9042 40.7468 35.7216C41.0744 35.539 41.3499 35.2757 41.5471 34.9567C41.7443 34.6377 41.8566 34.2735 41.8735 33.8989C41.8903 33.5242 41.8111 33.1514 41.6434 32.816L38.2114 25.95C38.0723 25.6725 37.9997 25.3664 37.9994 25.056V18C37.9994 14.287 36.5244 10.726 33.8989 8.1005C31.2734 5.475 27.7124 4 23.9994 4ZM23.9994 42C22.7581 42.0007 21.5471 41.6163 20.5334 40.8999C19.5197 40.1835 18.7531 39.1703 18.3394 38H29.6594C29.2456 39.1703 28.479 40.1835 27.4653 40.8999C26.4516 41.6163 25.2407 42.0007 23.9994 42Z" fill="#274760"/>
</svg>
