<svg width="48" height="48" viewBox="0 0 48 48" fill="none" xmlns="http://www.w3.org/2000/svg">
<path d="M32 34V38H4V34C4 34 4 26 18 26C32 26 32 34 32 34ZM25 15C25 13.6155 24.5895 12.2621 23.8203 11.111C23.0511 9.95982 21.9579 9.06261 20.6788 8.5328C19.3997 8.00298 17.9922 7.86436 16.6344 8.13445C15.2765 8.40455 14.0292 9.07124 13.0503 10.0502C12.0713 11.0292 11.4046 12.2765 11.1345 13.6343C10.8644 14.9922 11.003 16.3997 11.5328 17.6787C12.0627 18.9578 12.9599 20.0511 14.111 20.8202C15.2622 21.5894 16.6155 22 18 22C19.8565 22 21.637 21.2625 22.9497 19.9497C24.2625 18.6369 25 16.8565 25 15ZM31.88 26C33.1095 26.9514 34.1155 28.1608 34.8274 29.543C35.5392 30.9251 35.9394 32.4465 36 34V38H44V34C44 34 44 26.74 31.88 26ZM30 7.99995C28.6236 7.99355 27.2776 8.40501 26.14 9.17995C27.3549 10.8774 28.0081 12.9125 28.0081 15C28.0081 17.0874 27.3549 19.1225 26.14 20.82C27.2776 21.5949 28.6236 22.0064 30 22C31.8565 22 33.637 21.2625 34.9497 19.9497C36.2625 18.6369 37 16.8565 37 15C37 13.1434 36.2625 11.363 34.9497 10.0502C33.637 8.73745 31.8565 7.99995 30 7.99995Z" fill="#274760"/>
</svg>
